<?xml version="1.0" standalone="no"?>
<!DOCTYPE svg PUBLIC "-//W3C//DTD SVG 20010904//EN"
 "http://www.w3.org/TR/2001/REC-SVG-20010904/DTD/svg10.dtd">
<svg version="1.0" xmlns="http://www.w3.org/2000/svg"
 width="980.000000pt" height="254.000000pt" viewBox="0 0 980.000000 254.000000"
 preserveAspectRatio="xMidYMid meet">

<g transform="translate(0.000000,254.000000) scale(0.100000,-0.100000)"
fill="#000000" stroke="none">
<path d="M1267 2390 c-15 -26 -27 -52 -27 -58 0 -5 27 -24 60 -41 33 -18 60
-34 60 -36 0 -2 -70 -122 -155 -267 l-156 -263 -42 -6 c-23 -4 -48 -9 -56 -10
-10 -3 -20 13 -30 50 l-16 53 -70 -7 c-38 -3 -98 -13 -132 -20 -71 -17 -223
-73 -223 -83 0 -4 7 -29 15 -56 8 -27 15 -52 15 -55 0 -4 -23 -24 -51 -45
l-52 -38 -59 28 -60 29 -29 -35 c-81 -95 -179 -271 -179 -322 0 -9 21 -28 48
-44 26 -15 49 -28 50 -30 2 -1 1 -31 -3 -67 l-7 -64 -60 -17 -61 -17 6 -67 c9
-87 39 -194 79 -277 35 -74 22 -70 133 -50 27 4 34 -1 69 -47 l39 -52 -26 -51
c-15 -27 -27 -54 -27 -57 0 -13 144 -115 207 -147 48 -24 160 -71 170 -71 1 0
15 23 33 51 l31 51 67 -7 c37 -4 70 -10 74 -14 3 -3 13 -28 21 -56 l14 -50 77
2 c122 3 346 72 346 106 0 8 -6 35 -14 61 l-14 47 54 40 55 40 56 -30 57 -31
28 33 c72 82 125 170 164 273 l24 63 -55 33 -55 32 6 56 c8 77 6 75 68 90 32
7 59 16 61 20 6 9 -13 135 -30 203 -8 32 -31 92 -50 134 -31 67 -37 75 -57 70
-90 -22 -91 -21 -114 27 l-20 45 159 267 c87 148 160 270 162 272 2 2 31 -13
66 -33 34 -20 65 -32 69 -28 4 4 18 29 33 54 l26 46 -117 66 c-89 50 -120 63
-128 54 -6 -7 -95 -154 -197 -327 -101 -173 -199 -339 -215 -367 l-31 -53 44
-26 c25 -14 45 -33 45 -42 0 -10 11 -41 25 -70 19 -41 29 -52 42 -48 46 14
104 23 107 17 8 -12 46 -143 46 -157 0 -8 -23 -20 -55 -29 l-55 -16 -1 -72 c0
-40 -8 -103 -18 -141 l-18 -68 49 -30 c26 -16 48 -35 48 -42 0 -12 -63 -123
-79 -139 -5 -5 -31 4 -58 19 l-50 28 -64 -53 c-35 -30 -88 -67 -117 -84 -48
-27 -53 -33 -48 -56 21 -92 23 -87 -30 -104 -27 -9 -68 -19 -91 -22 l-42 -7
-17 55 -17 54 -91 6 c-50 4 -115 14 -144 22 -30 9 -55 15 -57 13 -1 -2 -14
-22 -29 -45 -14 -24 -32 -43 -39 -43 -14 0 -157 78 -157 86 0 2 11 27 25 54
l25 50 -57 59 c-32 32 -71 82 -88 110 -30 51 -30 52 -70 46 -22 -3 -50 -8 -61
-11 -19 -5 -24 2 -42 58 -35 106 -34 111 18 126 25 8 51 15 58 18 8 2 12 28
12 81 0 69 9 128 26 185 4 13 -9 26 -46 49 -37 23 -50 36 -45 48 12 32 70 123
81 128 7 2 34 -7 60 -20 l49 -25 53 47 c28 26 81 64 116 85 l64 37 -14 52 c-8
29 -14 55 -14 59 0 8 172 49 180 42 3 -3 12 -26 21 -52 15 -44 18 -47 55 -50
21 -2 56 1 76 8 33 9 42 8 78 -15 22 -14 42 -25 44 -25 3 0 19 26 37 58 18 31
118 201 221 376 103 176 188 322 188 326 0 3 -26 20 -57 38 -32 17 -85 47
-118 66 l-61 35 -27 -49z"/>
<path d="M4715 1534 c-11 -2 -45 -9 -75 -15 -164 -33 -321 -175 -381 -344 -30
-84 -36 -220 -14 -305 106 -409 611 -549 905 -251 60 61 108 133 125 189 6 22
5 22 -73 22 l-79 0 -32 -50 c-90 -138 -275 -202 -439 -152 -279 87 -364 448
-152 646 184 172 463 138 597 -71 l34 -53 74 0 c89 0 89 2 44 93 -62 122 -194
232 -326 270 -56 17 -175 29 -208 21z"/>
<path d="M5790 1000 l0 -540 420 0 420 0 0 75 0 75 -345 0 -345 0 0 465 0 465
-75 0 -75 0 0 -540z"/>
<path d="M8710 1461 l0 -81 314 0 c308 0 314 0 346 -22 41 -28 70 -81 70 -128
0 -47 -29 -100 -70 -127 -32 -22 -41 -23 -271 -23 l-239 0 0 110 0 110 -75 0
-75 0 0 -420 0 -421 373 3 372 3 53 29 c60 33 101 76 134 139 19 35 23 58 23
132 0 81 -3 95 -30 144 -16 30 -49 70 -72 89 l-42 35 19 26 c81 115 58 297
-50 395 -88 79 -95 81 -457 84 l-323 3 0 -80z m731 -563 c51 -29 84 -93 76
-150 -6 -45 -28 -81 -71 -112 -26 -20 -40 -21 -304 -21 l-277 0 -3 140 c-1 76
0 145 2 152 4 10 63 13 272 13 255 0 268 -1 305 -22z"/>
<path d="M2410 995 l0 -535 70 0 70 0 0 535 0 535 -70 0 -70 0 0 -535z"/>
<path d="M3000 1513 c-63 -23 -152 -113 -173 -177 -9 -27 -17 -80 -17 -116 0
-117 70 -223 179 -274 41 -19 70 -21 283 -26 270 -6 273 -7 317 -93 27 -55 24
-95 -12 -148 -42 -63 -67 -69 -295 -69 -169 0 -210 3 -239 16 -36 18 -83 77
-83 106 0 16 -10 18 -75 18 -72 0 -75 -1 -75 -23 0 -80 75 -188 164 -235 l51
-27 255 0 c249 0 256 1 304 24 107 53 170 155 170 276 0 94 -30 160 -99 223
-80 74 -117 82 -363 82 -186 0 -210 2 -246 20 -57 28 -79 63 -84 130 -4 65 18
108 70 140 30 18 51 20 246 20 228 0 243 -3 290 -53 13 -13 26 -37 31 -53 7
-28 9 -29 84 -32 l77 -3 -6 33 c-17 95 -83 186 -167 230 -40 22 -54 23 -292
25 -209 2 -257 -1 -295 -14z"/>
<path d="M7515 1448 c-26 -45 -48 -87 -48 -93 0 -12 470 -864 488 -883 8 -9
39 -12 106 -10 l95 3 -86 155 c-47 85 -173 313 -280 505 -106 193 -201 363
-211 378 l-17 29 -47 -84z"/>
<path d="M711 1356 c-7 -9 -21 -16 -31 -16 -12 0 -50 -54 -124 -180 -58 -98
-106 -184 -106 -191 0 -25 215 -368 231 -369 9 0 24 -9 34 -20 17 -19 31 -20
235 -20 l217 0 107 183 c82 138 105 186 98 198 -6 10 -6 21 0 32 7 14 -15 58
-103 202 l-112 185 -82 0 c-45 0 -142 3 -216 6 -117 6 -136 5 -148 -10z m437
-220 c34 -57 62 -107 62 -110 0 -8 -174 -8 -221 0 -32 5 -40 14 -84 88 -27 44
-55 91 -63 104 l-14 22 128 0 129 -1 63 -103z m-361 -72 l61 -102 -59 -98
c-32 -54 -62 -100 -66 -101 -5 -1 -36 44 -71 102 l-63 104 62 106 c34 58 66
102 69 98 4 -5 34 -54 67 -109z m423 -173 c0 -5 -26 -54 -58 -108 l-58 -98
-127 -3 c-80 -2 -127 1 -127 7 0 10 93 173 113 199 11 14 257 18 257 3z"/>
<path d="M7218 912 c-103 -185 -201 -363 -218 -394 l-32 -58 101 0 100 0 169
307 170 307 -40 76 c-23 41 -46 81 -52 87 -9 10 -56 -68 -198 -325z"/>
</g>
</svg>
