<?xml version="1.0" standalone="no"?>
<!DOCTYPE svg PUBLIC "-//W3C//DTD SVG 20010904//EN"
 "http://www.w3.org/TR/2001/REC-SVG-20010904/DTD/svg10.dtd">
<svg version="1.0" xmlns="http://www.w3.org/2000/svg"
 width="389.000000pt" height="150.000000pt" viewBox="0 0 389.000000 150.000000"
 preserveAspectRatio="xMidYMid meet">

<g transform="translate(0.000000,150.000000) scale(0.100000,-0.100000)"
fill="#000000" stroke="none">
<path d="M1758 797 c-57 -28 -73 -65 -73 -167 0 -98 17 -139 68 -171 43 -26
150 -24 155 4 3 16 -1 17 -31 12 -42 -8 -98 8 -122 35 -20 22 -32 127 -21 185
4 21 18 48 31 61 20 20 34 24 85 24 45 0 60 3 60 14 0 32 -90 34 -152 3z"/>
<path d="M2530 798 c-67 -34 -93 -90 -87 -185 6 -78 23 -116 65 -148 39 -29
169 -29 209 1 50 37 65 78 61 174 -5 100 -20 129 -82 160 -55 26 -111 25 -166
-2z m142 -80 c4 -7 8 -49 8 -92 0 -90 -14 -116 -62 -116 -54 0 -66 14 -72 82
-8 81 3 130 33 144 26 13 79 3 93 -18z"/>
<path d="M1130 795 c0 -11 12 -15 50 -15 l50 0 0 -170 c0 -163 1 -170 20 -170
19 0 20 7 20 170 l0 170 50 0 c38 0 50 4 50 15 0 13 -20 15 -120 15 -100 0
-120 -2 -120 -15z"/>
<path d="M1430 625 l0 -185 104 0 c80 0 105 3 109 14 9 23 -2 26 -90 26 l-83
0 0 65 0 65 75 0 c57 0 75 3 75 14 0 15 -43 26 -106 26 l-44 0 0 65 0 65 85 0
c69 0 85 3 85 15 0 12 -18 15 -105 15 l-105 0 0 -185z"/>
<path d="M1970 625 l0 -185 40 0 40 0 0 130 c0 72 3 130 8 130 4 0 24 -54 45
-120 l37 -120 40 0 39 0 40 123 40 122 1 -117 c0 -64 3 -123 6 -132 4 -11 19
-16 45 -16 l39 0 0 185 0 185 -69 0 -70 0 -32 -102 c-17 -57 -34 -110 -37
-118 -2 -8 -10 12 -17 45 -8 33 -22 85 -33 115 l-19 55 -71 3 -72 3 0 -186z"/>
<path d="M2810 775 c0 -35 0 -35 45 -35 l45 0 0 -151 0 -150 48 3 47 3 3 148
3 147 45 0 c45 0 45 0 42 33 l-3 32 -137 3 -138 3 0 -36z"/>
<path d="M3124 669 c8 -160 18 -193 71 -215 48 -20 142 -18 185 4 47 23 58 66
59 225 l1 127 -50 0 -50 0 0 -134 c0 -109 -3 -138 -16 -150 -19 -20 -54 -20
-80 -2 -17 13 -19 29 -22 150 l-4 136 -50 0 -50 0 6 -141z"/>
<path d="M3500 625 l0 -186 112 3 113 3 1 33 c1 34 3 34 -103 35 -23 0 -23 1
-23 148 l0 149 -50 0 -50 0 0 -185z"/>
</g>
</svg>
